<svg xmlns="http://www.w3.org/2000/svg" xmlns:xlink="http://www.w3.org/1999/xlink" width="100%" height="100%" fill-rule="evenodd" stroke-linecap="round" stroke-linejoin="round" stroke-miterlimit="1.5" clip-rule="evenodd" version="1.1" viewBox="0 0 32 32" xml:space="preserve"><path fill="none" stroke="#000" stroke-width="4" d="M5,26L8.969,26L9,6C9,6 10.684,4 16.018,4C21.351,4 23,6 23,6L23,26L27,26L27,30L5,30L5,26Z"/><g><path fill="#656565" d="M10,16L10,30L2,30L2,16" transform="matrix(2.75,0,0,0.285714,-0.5,21.4286)"/></g><g><path fill="#969696" d="M3.457,16L3.455,-54C3.455,-54 4.061,-61 6,-61C7.939,-61 8.545,-54 8.545,-54L8.558,16" transform="matrix(2.75,0,0,0.285714,-0.5,21.4286)"/></g><g><path fill="#303030" d="M6,26.5L6,30L2,30L2,26.5" transform="matrix(2.5,0,0,0.285714,5.98442,10.4286)"/></g><g><g><path fill="#303030" fill-rule="nonzero" d="M0.327,-0.26L0.21,-0.26L0.21,0L0.063,0L0.063,-0.711L0.328,-0.711C0.412,-0.711 0.476,-0.692 0.522,-0.655C0.568,-0.617 0.59,-0.564 0.59,-0.496C0.59,-0.448 0.58,-0.407 0.559,-0.375C0.538,-0.342 0.506,-0.317 0.463,-0.297L0.617,-0.007L0.617,0L0.46,0L0.327,-0.26ZM0.21,-0.379L0.328,-0.379C0.365,-0.379 0.393,-0.388 0.414,-0.407C0.434,-0.426 0.444,-0.451 0.444,-0.484C0.444,-0.518 0.434,-0.544 0.415,-0.563C0.396,-0.583 0.367,-0.592 0.328,-0.592L0.21,-0.592L0.21,-0.379Z" transform="matrix(1,0,0,1,-0.924396,2.61556) matrix(7,0,0,7,11.4956,14.8727)"/></g><g transform="matrix(1,0,0,1,-0.924396,2.61556) matrix(7,0,0,7,15.7879,14.8727)"><rect width=".146" height=".711" x=".073" y="-.711" fill="#303030" fill-rule="nonzero"/></g><g><path fill="#303030" fill-rule="nonzero" d="M0.21,-0.25L0.21,0L0.063,0L0.063,-0.711L0.341,-0.711C0.394,-0.711 0.441,-0.701 0.482,-0.682C0.522,-0.662 0.553,-0.634 0.575,-0.598C0.597,-0.562 0.608,-0.521 0.608,-0.476C0.608,-0.406 0.584,-0.351 0.536,-0.311C0.489,-0.271 0.423,-0.25 0.338,-0.25L0.21,-0.25ZM0.21,-0.369L0.341,-0.369C0.38,-0.369 0.409,-0.378 0.429,-0.396C0.45,-0.415 0.46,-0.441 0.46,-0.475C0.46,-0.509 0.45,-0.538 0.429,-0.559C0.409,-0.581 0.38,-0.592 0.344,-0.592L0.21,-0.592L0.21,-0.369Z" transform="matrix(1,0,0,1,-0.924396,2.61556) matrix(7,0,0,7,17.6534,14.8727)"/></g></g></svg>